<?xml version="1.0" standalone="no"?>
<!DOCTYPE svg PUBLIC "-//W3C//DTD SVG 20010904//EN"
 "http://www.w3.org/TR/2001/REC-SVG-20010904/DTD/svg10.dtd">
<svg version="1.0" xmlns="http://www.w3.org/2000/svg"
 width="237.000000pt" height="213.000000pt" viewBox="0 0 237.000000 213.000000"
 preserveAspectRatio="xMidYMid meet">
<metadata>
Created by potrace 1.16, written by Peter Selinger 2001-2019
</metadata>
<g transform="translate(0.000000,213.000000) scale(0.100000,-0.100000)"
fill="#000000" stroke="none">
<path d="M1090 2020 c0 -11 4 -20 9 -20 5 0 7 9 4 20 -3 11 -7 20 -9 20 -2 0
-4 -9 -4 -20z"/>
<path d="M1133 2005 c0 -22 2 -30 4 -17 2 12 2 30 0 40 -3 9 -5 -1 -4 -23z"/>
<path d="M1168 2013 c5 -21 7 -23 10 -9 2 10 0 22 -6 28 -6 6 -7 0 -4 -19z"/>
<path d="M1270 2025 c1 -11 7 -29 15 -39 19 -26 19 -6 0 30 -12 23 -15 25 -15
9z"/>
<path d="M1242 2010 c0 -14 2 -19 5 -12 2 6 2 18 0 25 -3 6 -5 1 -5 -13z"/>
<path d="M1020 1999 c0 -5 4 -8 9 -5 5 3 14 -1 21 -9 7 -8 17 -15 23 -15 5 0
-2 9 -16 20 -28 23 -37 25 -37 9z"/>
<path d="M1417 1994 c-4 -4 -7 -17 -7 -28 1 -19 1 -20 11 -3 11 19 8 43 -4 31z"/>
<path d="M950 1983 c0 -7 11 -24 23 -39 18 -21 26 -24 32 -14 5 9 4 11 -3 6
-7 -4 -20 6 -32 26 -11 18 -20 28 -20 21z"/>
<path d="M1376 1953 c-6 -14 -5 -15 5 -6 7 7 10 15 7 18 -3 3 -9 -2 -12 -12z"/>
<path d="M1436 1938 l-18 -33 21 25 c18 22 26 40 18 40 -1 0 -11 -15 -21 -32z"/>
<path d="M128 1934 c-8 -19 -12 -84 -13 -189 0 -140 3 -169 23 -230 110 -333
363 -617 705 -790 70 -36 134 -65 142 -65 36 0 9 -20 -57 -41 l-73 -24 60 -9
c39 -6 98 -5 169 2 82 9 138 9 225 0 76 -7 133 -8 166 -2 l50 9 -65 24 c-36
13 -69 26 -73 30 -4 4 12 13 35 20 69 21 175 78 297 160 271 180 480 464 542
733 27 118 29 260 5 342 -20 67 -30 72 -14 6 15 -66 3 -222 -25 -320 -74 -261
-272 -520 -532 -696 -142 -96 -354 -192 -399 -180 -38 9 -32 20 22 38 185 63
388 179 536 307 118 103 250 282 305 416 24 58 61 238 60 287 0 21 -6 6 -14
-39 -61 -338 -290 -616 -680 -825 -87 -47 -213 -101 -287 -124 -44 -13 -50
-13 -120 12 -99 36 -283 124 -358 171 -163 101 -343 267 -416 381 -38 59 -114
207 -119 231 -2 9 -12 52 -24 96 -11 44 -22 91 -25 105 -2 14 -2 -9 1 -50 24
-379 339 -740 817 -939 54 -23 105 -41 112 -41 24 0 15 -19 -12 -26 -50 -13
-278 95 -424 199 -160 116 -312 280 -403 434 -99 171 -150 380 -129 531 12 84
9 100 -10 56z m1127 -1224 c22 0 26 -3 15 -9 -31 -18 -80 -22 -122 -10 l-43
13 40 7 c22 4 49 5 60 3 11 -2 34 -4 50 -4z"/>
<path d="M865 1931 c-3 -5 -2 -12 3 -15 5 -3 9 1 9 9 0 17 -3 19 -12 6z"/>
<path d="M1166 1912 c-2 -4 13 -6 35 -4 21 2 39 6 39 8 0 7 -69 4 -74 -4z"/>
<path d="M1501 1888 c-6 -16 -4 -28 6 -40 14 -15 17 -15 44 9 16 15 27 28 25
31 -3 2 -15 -5 -27 -17 -35 -32 -54 -25 -39 15 5 13 7 24 4 24 -2 0 -9 -10
-13 -22z"/>
<path d="M859 1881 c12 -12 19 -27 15 -33 -5 -7 -3 -8 5 -4 9 6 9 13 -2 29 -7
11 -20 23 -27 25 -7 3 -3 -5 9 -17z"/>
<path d="M810 1871 c0 -10 39 -46 43 -40 2 2 -7 14 -20 26 -13 12 -23 19 -23
14z"/>
<path d="M1077 1865 c-4 -8 -3 -16 1 -19 4 -3 9 4 9 15 2 23 -3 25 -10 4z"/>
<path d="M1127 1869 c7 -7 15 -10 18 -7 3 3 -2 9 -12 12 -14 6 -15 5 -6 -5z"/>
<path d="M1203 1869 c9 -6 15 -14 13 -18 -3 -4 1 -8 9 -8 13 0 12 4 -2 19 -9
10 -21 18 -27 18 -6 0 -3 -5 7 -11z"/>
<path d="M1261 1853 c7 -12 15 -20 18 -17 3 2 -3 12 -13 22 -17 16 -18 16 -5
-5z"/>
<path d="M1378 1863 c6 -2 10 -9 7 -14 -4 -5 1 -6 10 -2 13 5 14 7 3 14 -7 5
-17 8 -23 8 -5 0 -4 -3 3 -6z"/>
<path d="M1562 1844 c-23 -16 -29 -39 -13 -48 5 -4 7 3 4 13 -3 14 3 24 24 35
15 8 23 15 18 16 -6 0 -21 -7 -33 -16z"/>
<path d="M800 1836 c0 -2 7 -7 16 -10 8 -3 12 -2 9 4 -6 10 -25 14 -25 6z"/>
<path d="M930 1825 c0 -8 2 -15 4 -15 2 0 6 7 10 15 3 8 1 15 -4 15 -6 0 -10
-7 -10 -15z"/>
<path d="M1135 1830 c4 -6 11 -8 16 -5 14 9 11 15 -7 15 -8 0 -12 -5 -9 -10z"/>
<path d="M900 1815 c-6 -8 -10 -19 -8 -26 2 -6 9 0 16 15 13 29 10 33 -8 11z"/>
<path d="M996 1808 c-9 -12 -16 -27 -16 -33 0 -5 5 -2 11 8 14 23 32 12 19
-13 -7 -13 -5 -21 8 -31 15 -13 16 -12 4 3 -14 18 -1 34 22 25 17 -7 40 29 24
39 -7 4 -8 3 -4 -5 11 -17 -22 -25 -40 -11 -8 7 -13 19 -10 27 8 20 -1 16 -18
-9z"/>
<path d="M787 1796 c15 -13 32 -22 36 -19 5 3 -5 14 -22 24 -43 26 -48 24 -14
-5z"/>
<path d="M1278 1802 c-4 -12 -2 -24 2 -27 13 -8 18 8 10 29 -6 19 -7 19 -12
-2z"/>
<path d="M1185 1800 c-3 -5 -12 -7 -19 -4 -8 3 -17 0 -22 -7 -5 -8 -3 -10 6
-4 7 4 15 3 19 -3 4 -7 11 -4 19 8 7 11 10 20 8 20 -3 0 -7 -4 -11 -10z"/>
<path d="M1423 1796 c0 -8 3 -13 7 -11 12 7 46 -39 48 -63 0 -14 -3 -20 -10
-16 -7 5 -8 2 -4 -5 5 -7 10 -10 13 -7 3 3 21 -8 40 -24 48 -43 68 -40 42 5
-25 41 -32 45 -19 10 5 -14 6 -25 1 -25 -14 0 -32 26 -23 34 4 4 1 6 -7 4 -7
-1 -16 3 -19 11 -3 9 0 11 9 6 18 -11 -23 44 -53 73 -18 16 -25 18 -25 8z"/>
<path d="M1250 1777 c0 -12 -7 -34 -16 -47 l-16 -25 21 24 c18 20 30 71 16 71
-3 0 -5 -10 -5 -23z"/>
<path d="M1086 1782 c-3 -5 1 -9 9 -9 8 0 12 4 9 9 -3 4 -7 8 -9 8 -2 0 -6 -4
-9 -8z"/>
<path d="M1613 1784 c3 -4 1 -16 -5 -28 -9 -18 -9 -19 3 -6 8 8 20 21 28 28
13 10 11 12 -9 12 -13 0 -20 -3 -17 -6z"/>
<path d="M1340 1770 c-9 -6 -10 -10 -3 -10 6 0 15 5 18 10 8 12 4 12 -15 0z"/>
<path d="M1370 1771 c0 -6 4 -13 10 -16 6 -3 7 1 4 9 -7 18 -14 21 -14 7z"/>
<path d="M1419 1757 c29 -32 28 -31 28 -12 0 8 -3 13 -5 10 -3 -3 -15 3 -26
12 -15 13 -14 10 3 -10z"/>
<path d="M1578 1773 c7 -3 16 -2 19 1 4 3 -2 6 -13 5 -11 0 -14 -3 -6 -6z"/>
<path d="M740 1766 c0 -2 9 -6 20 -9 11 -3 18 -1 14 4 -5 9 -34 13 -34 5z"/>
<path d="M954 1755 c-8 -21 6 -37 27 -32 32 9 23 -33 -16 -69 -19 -17 -35 -37
-35 -42 0 -6 21 11 47 39 39 41 45 53 36 67 -6 9 -21 16 -33 14 -18 -2 -21 2
-17 18 6 23 -1 27 -9 5z"/>
<path d="M1505 1746 c10 -14 19 -26 22 -26 7 0 -17 39 -28 46 -6 3 -3 -5 6
-20z"/>
<path d="M1080 1740 c-9 -6 -10 -10 -3 -10 6 0 15 5 18 10 8 12 4 12 -15 0z"/>
<path d="M1151 1733 c-1 -13 7 -31 17 -41 9 -9 16 -26 14 -37 -3 -17 -1 -17 7
-5 9 12 11 11 11 -7 0 -12 -5 -24 -10 -26 -6 -3 -5 -4 2 -3 7 1 14 12 16 24 2
13 8 19 14 16 7 -5 8 -2 4 5 -5 7 -10 10 -13 7 -8 -8 -45 35 -53 63 -8 24 -8
24 -9 4z"/>
<path d="M1202 1725 c0 -16 2 -22 5 -12 2 9 2 23 0 30 -3 6 -5 -1 -5 -18z"/>
<path d="M1323 1735 c0 -8 4 -15 9 -15 4 0 8 4 8 9 0 6 -4 12 -8 15 -5 3 -9
-1 -9 -9z"/>
<path d="M1177 1719 c4 -13 8 -18 11 -10 2 7 -1 18 -6 23 -8 8 -9 4 -5 -13z"/>
<path d="M1265 1730 c-3 -5 -3 -10 2 -10 4 0 1 -5 -7 -11 -10 -7 -11 -9 -2 -7
8 2 13 7 12 12 -1 5 4 13 12 17 9 6 9 9 1 9 -6 0 -15 -4 -18 -10z"/>
<path d="M1402 1713 c12 -13 24 -21 26 -18 3 3 12 -1 21 -8 8 -6 5 2 -7 20
-13 19 -30 31 -42 30 -19 -1 -19 -2 2 -24z m19 0 c13 -16 12 -17 -3 -4 -10 7
-18 15 -18 17 0 8 8 3 21 -13z"/>
<path d="M1643 1713 c-18 -37 -11 -39 11 -3 9 17 14 30 9 30 -4 0 -14 -12 -20
-27z"/>
<path d="M1350 1721 c0 -5 7 -15 17 -22 15 -13 15 -12 4 9 -12 23 -21 28 -21
13z"/>
<path d="M710 1710 c0 -8 60 -23 67 -17 1 2 -13 8 -32 14 -19 6 -35 8 -35 3z"/>
<path d="M1090 1716 c0 -2 7 -7 16 -10 8 -3 12 -2 9 4 -6 10 -25 14 -25 6z"/>
<path d="M1140 1691 c0 -8 -7 -10 -21 -6 -15 5 -19 4 -15 -4 4 -6 13 -11 21
-11 16 0 30 18 21 27 -3 4 -6 1 -6 -6z"/>
<path d="M1300 1690 c-9 -6 -10 -10 -3 -10 6 0 15 5 18 10 8 12 4 12 -15 0z"/>
<path d="M815 1669 c-4 -6 -5 -12 -2 -15 2 -3 7 2 10 11 7 17 1 20 -8 4z"/>
<path d="M934 1658 l-19 -23 23 19 c21 18 27 26 19 26 -2 0 -12 -10 -23 -22z"/>
<path d="M1400 1668 c0 -4 9 -8 20 -8 11 0 20 4 20 8 0 4 -9 8 -20 8 -11 0
-20 -4 -20 -8z"/>
<path d="M1270 1660 c-13 -8 -12 -10 3 -10 9 0 17 5 17 10 0 12 -1 12 -20 0z"/>
<path d="M1633 1655 c-3 -9 -3 -19 1 -22 3 -4 6 1 6 10 0 9 11 17 28 20 l27 4
-28 2 c-17 0 -30 -5 -34 -14z"/>
<path d="M720 1651 c-8 -6 -18 -7 -24 -4 -5 3 -6 1 -2 -5 5 -9 13 -9 27 -1 11
6 27 8 35 5 9 -3 12 -1 9 4 -8 12 -25 13 -45 1z"/>
<path d="M860 1650 c-12 -7 -10 -9 7 -7 12 0 19 5 17 9 -6 10 -6 10 -24 -2z"/>
<path d="M1075 1649 c-4 -6 -5 -12 -2 -15 2 -3 7 2 10 11 7 17 1 20 -8 4z"/>
<path d="M1137 1633 c-3 -16 -3 -31 0 -35 6 -11 33 -10 33 2 0 5 -7 7 -15 4
-12 -5 -14 0 -9 25 4 17 4 31 1 31 -2 0 -7 -12 -10 -27z"/>
<path d="M1162 1640 c0 -14 2 -19 5 -12 2 6 2 18 0 25 -3 6 -5 1 -5 -13z"/>
<path d="M1360 1646 c7 -7 13 -7 20 0 6 6 3 10 -10 10 -13 0 -16 -4 -10 -10z"/>
<path d="M1496 1640 c4 -14 14 -33 22 -43 9 -10 19 -42 23 -70 l6 -52 2 45 c0
29 -5 54 -16 70 -10 14 -24 36 -30 50 l-13 25 6 -25z"/>
<path d="M1689 1633 c-13 -16 -12 -17 4 -4 9 7 17 15 17 17 0 8 -8 3 -21 -13z"/>
<path d="M241 1635 c-1 -12 27 -88 57 -157 34 -78 118 -194 200 -277 88 -89
134 -127 250 -204 80 -53 350 -193 358 -185 10 10 -99 86 -194 136 -151 78
-304 184 -393 273 -84 84 -190 237 -243 351 -19 40 -35 68 -35 63z"/>
<path d="M1410 1621 c5 -11 15 -23 20 -26 6 -4 7 -11 4 -17 -4 -7 -2 -8 4 -4
8 5 5 16 -10 37 -25 33 -34 38 -18 10z"/>
<path d="M881 1604 c-9 -21 -9 -30 0 -38 9 -8 10 -8 5 1 -4 7 -2 22 4 34 7 11
10 23 7 25 -2 2 -9 -8 -16 -22z"/>
<path d="M912 1610 c0 -14 2 -19 5 -12 2 6 2 18 0 25 -3 6 -5 1 -5 -13z"/>
<path d="M1561 1614 c0 -11 3 -14 6 -6 3 7 2 16 -1 19 -3 4 -6 -2 -5 -13z"/>
<path d="M1080 1609 c0 -5 -4 -7 -10 -4 -5 3 -10 -1 -10 -11 0 -13 3 -14 15
-4 18 15 19 7 4 -23 -7 -12 -8 -19 -4 -14 5 4 21 -4 35 -18 15 -14 33 -25 41
-23 8 2 13 -3 11 -11 -3 -12 -1 -12 13 -1 15 13 15 15 -7 24 -12 5 -27 8 -32
7 -10 -2 -46 29 -46 40 0 4 6 9 13 11 9 2 8 8 -5 21 -10 9 -18 12 -18 6z"/>
<path d="M1360 1610 c0 -5 9 -14 20 -20 11 -6 20 -9 20 -8 0 2 -9 11 -20 21
-11 9 -20 13 -20 7z"/>
<path d="M2093 1529 c-143 -268 -306 -421 -628 -589 -55 -29 -121 -70 -145
-91 l-45 -40 35 15 c122 49 350 176 412 228 15 13 42 34 60 48 53 40 160 150
209 215 44 59 135 215 125 215 -3 0 2 16 10 36 26 63 10 45 -33 -37z"/>
<path d="M1206 1591 c-3 -4 6 -7 19 -7 14 0 22 2 19 5 -8 8 -34 10 -38 2z"/>
<path d="M1330 1596 c0 -3 9 -10 20 -16 11 -6 20 -8 20 -6 0 3 -9 10 -20 16
-11 6 -20 8 -20 6z"/>
<path d="M1478 1587 c10 -12 11 -25 3 -52 -7 -27 -6 -45 5 -73 l14 -37 -5 65
c-5 72 -2 71 19 -10 l15 -55 0 55 c-1 30 -3 48 -7 40 -3 -9 -10 2 -17 29 -6
25 -17 47 -25 49 -13 4 -13 3 -2 -11z"/>
<path d="M1668 1579 c-10 -10 -14 -19 -10 -19 5 0 17 9 27 20 10 11 14 20 9
19 -5 0 -17 -9 -26 -20z"/>
<path d="M670 1581 c0 -5 18 -11 40 -13 47 -4 54 7 9 16 -42 8 -49 8 -49 -3z"/>
<path d="M926 1581 c-3 -5 2 -15 12 -22 15 -12 16 -12 5 2 -7 9 -10 19 -6 22
3 4 4 7 0 7 -3 0 -8 -4 -11 -9z"/>
<path d="M956 1578 c3 -5 20 -8 38 -8 17 0 38 -6 46 -12 12 -11 12 -10 2 3
-12 16 -95 32 -86 17z"/>
<path d="M1562 1512 c-14 -91 -16 -144 -3 -122 8 15 26 200 19 200 -2 0 -9
-35 -16 -78z"/>
<path d="M1136 1569 c4 -8 30 -6 38 2 3 3 -5 5 -19 5 -13 0 -22 -3 -19 -7z"/>
<path d="M1203 1557 c-3 -6 -1 -7 5 -3 5 3 12 1 14 -6 3 -8 6 -7 10 3 7 17
-19 22 -29 6z"/>
<path d="M1380 1564 c0 -5 7 -19 15 -30 8 -10 15 -14 15 -8 0 5 -7 19 -15 30
-8 10 -15 14 -15 8z"/>
<path d="M805 1537 c0 -17 5 -23 17 -19 15 4 15 5 0 23 -9 10 -17 19 -17 19 0
0 0 -11 0 -23z"/>
<path d="M1428 1545 c5 -11 12 -27 15 -35 5 -13 6 -13 6 1 1 8 -6 24 -15 35
-15 19 -15 19 -6 -1z"/>
<path d="M714 1514 c-10 -8 -13 -13 -6 -9 8 4 12 -1 12 -15 0 -23 21 -23 28 0
3 7 0 10 -6 6 -6 -4 -8 2 -5 14 6 24 3 25 -23 4z"/>
<path d="M974 1518 c-3 -4 1 -8 9 -8 8 0 22 -10 30 -22 15 -22 16 -22 5 8 -11
29 -33 40 -44 22z"/>
<path d="M1037 1523 c-4 -3 -7 -11 -7 -17 0 -6 5 -5 12 2 6 6 9 14 7 17 -3 3
-9 2 -12 -2z"/>
<path d="M1061 1497 l-25 -32 25 23 c14 12 29 19 33 15 4 -4 4 0 0 10 -8 21
-4 22 -33 -16z"/>
<path d="M1208 1523 c7 -3 16 -2 19 1 4 3 -2 6 -13 5 -11 0 -14 -3 -6 -6z"/>
<path d="M1283 1485 c-6 -19 -7 -33 -2 -29 5 3 9 12 9 20 0 8 4 13 9 10 5 -4
7 3 4 14 -7 26 -8 26 -20 -15z"/>
<path d="M1340 1516 c0 -2 8 -10 18 -17 15 -13 16 -12 3 4 -13 16 -21 21 -21
13z"/>
<path d="M1677 1488 c4 -30 2 -38 -10 -38 -18 0 -32 34 -21 52 5 10 4 10 -6 2
-18 -17 -3 -53 28 -65 19 -7 29 -6 41 5 8 9 12 19 8 23 -4 3 -14 -2 -23 -13
-15 -18 -15 -18 -5 3 14 27 15 75 2 54 -7 -11 -9 -11 -14 0 -3 8 -3 -3 0 -23z"/>
<path d="M1230 1501 c0 -7 -4 -10 -9 -6 -5 3 -12 1 -15 -4 -4 -5 -2 -12 3 -15
11 -7 36 22 27 31 -3 3 -6 1 -6 -6z"/>
<path d="M679 1498 c-7 -32 -7 -68 0 -68 5 0 16 -6 23 -14 12 -11 17 -9 31 15
15 28 15 29 -5 29 -14 0 -18 -5 -14 -15 3 -9 0 -15 -10 -15 -12 0 -15 7 -12
30 3 17 1 33 -4 36 -4 3 -8 4 -9 2z"/>
<path d="M849 1488 c0 -2 -2 -12 -4 -22 -2 -10 -8 -22 -14 -25 -5 -4 3 -21 20
-40 16 -19 32 -31 35 -28 4 3 -6 16 -20 29 -31 26 -28 49 7 67 22 11 22 11 -2
5 -16 -4 -21 -3 -17 5 4 6 5 11 2 11 -3 0 -6 -1 -7 -2z"/>
<path d="M1081 1478 c-1 -23 9 -48 21 -48 5 0 6 5 2 11 -8 14 38 8 49 -6 4 -5
6 0 4 12 -4 26 -17 43 -17 21 0 -22 -44 -17 -52 7 -5 15 -6 16 -7 3z"/>
<path d="M1338 1475 c10 -19 12 -28 12 -42 0 -4 5 -2 12 5 9 9 15 9 27 -1 14
-11 14 -10 3 5 -8 10 -18 16 -22 15 -5 -1 -16 7 -25 18 l-16 20 9 -20z"/>
<path d="M1227 1449 c7 -7 15 -10 18 -7 3 3 -2 9 -12 12 -14 6 -15 5 -6 -5z"/>
<path d="M1416 1451 c-4 -5 -2 -12 4 -16 6 -4 8 -10 5 -15 -3 -5 -1 -11 3 -14
10 -6 10 40 0 49 -3 4 -9 2 -12 -4z"/>
<path d="M1280 1420 c-7 -17 -10 -33 -6 -37 3 -3 6 1 6 11 0 9 4 15 9 11 5 -3
13 0 17 6 5 8 3 9 -6 4 -9 -5 -10 -2 -5 14 10 32 -1 25 -15 -9z"/>
<path d="M916 1425 c4 -8 8 -15 10 -15 2 0 4 7 4 15 0 8 -4 15 -10 15 -5 0 -7
-7 -4 -15z"/>
<path d="M1000 1436 c0 -2 7 -7 16 -10 8 -3 12 -2 9 4 -6 10 -25 14 -25 6z"/>
<path d="M1620 1425 c0 -2 9 -9 19 -14 14 -8 20 -7 24 2 3 8 -4 14 -19 15 -13
1 -24 0 -24 -3z"/>
<path d="M940 1405 c-6 -8 -10 -19 -8 -24 1 -6 8 1 15 14 13 28 11 31 -7 10z"/>
<path d="M1210 1416 c0 -2 8 -10 18 -17 15 -13 16 -12 3 4 -13 16 -21 21 -21
13z"/>
<path d="M997 1390 c-3 -11 -1 -20 4 -20 5 0 9 5 9 11 0 8 6 7 18 -2 14 -11
13 -10 -2 9 -23 27 -22 27 -29 2z"/>
<path d="M1490 1401 c0 -6 -8 -11 -17 -12 -10 0 -13 -3 -6 -5 18 -8 49 11 34
20 -6 4 -11 2 -11 -3z"/>
<path d="M676 1388 c3 -4 9 -8 15 -8 5 0 9 4 9 8 0 5 -7 9 -15 9 -8 0 -12 -4
-9 -9z"/>
<path d="M1066 1384 c-9 -8 -16 -20 -16 -27 0 -6 6 -4 13 5 6 9 19 18 27 20 9
3 10 7 3 11 -6 4 -19 0 -27 -9z"/>
<path d="M1392 1382 c-8 -6 -2 -9 18 -9 20 0 26 3 18 9 -7 4 -15 8 -18 8 -3 0
-11 -4 -18 -8z"/>
<path d="M1118 1373 c6 -2 9 -10 6 -15 -4 -7 -2 -8 4 -4 18 11 14 26 -5 25
-11 0 -13 -3 -5 -6z"/>
<path d="M1205 1370 c-8 -13 22 -44 46 -45 10 -1 18 1 17 4 -3 28 3 31 32 16
29 -15 50 -13 50 5 0 4 -7 11 -16 14 -14 5 -15 4 -4 -9 9 -11 9 -15 1 -15 -6
0 -14 7 -17 15 -7 17 -40 20 -49 5 -4 -6 -11 -7 -17 -4 -7 4 -8 2 -4 -4 5 -8
2 -10 -8 -6 -23 9 -20 22 7 27 19 4 19 4 -5 6 -15 0 -30 -4 -33 -9z"/>
<path d="M1604 1368 c-11 -18 -15 -76 -6 -82 10 -6 36 44 27 52 -3 3 -5 0 -5
-7 0 -7 -4 -9 -10 -6 -5 3 -10 11 -10 16 0 6 5 7 12 3 8 -5 9 -2 5 10 -4 10
-3 15 3 11 6 -3 10 -1 10 4 0 15 -17 14 -26 -1z"/>
<path d="M1170 1354 c0 -8 5 -12 10 -9 6 3 10 10 10 16 0 5 -4 9 -10 9 -5 0
-10 -7 -10 -16z"/>
<path d="M1535 1360 c3 -5 8 -10 11 -10 2 0 4 5 4 10 0 6 -5 10 -11 10 -5 0
-7 -4 -4 -10z"/>
<path d="M1636 1361 c-3 -5 -3 -16 0 -24 3 -9 1 -24 -5 -35 -12 -23 -5 -33 16
-25 11 4 12 8 3 13 -8 5 -9 13 -4 21 13 21 15 47 5 54 -5 3 -12 1 -15 -4z"/>
<path d="M710 1340 c-7 -13 -7 -20 -1 -20 6 0 7 -8 4 -17 -5 -12 -2 -15 10
-10 15 6 21 -3 19 -24 -1 -4 11 -10 26 -14 l27 -7 -24 -12 c-19 -10 -20 -14
-8 -19 9 -3 20 0 26 7 13 15 4 49 -10 40 -5 -3 -14 8 -21 23 -7 15 -17 31 -22
34 -5 4 -6 11 -2 17 3 6 2 13 -3 17 -6 3 -15 -4 -21 -15z"/>
<path d="M751 1347 c-1 -20 27 -67 40 -67 5 0 9 7 9 16 0 8 -4 13 -9 9 -5 -3
-12 -1 -16 5 -3 5 -1 10 4 10 6 0 11 7 11 15 0 18 -20 20 -21 3 0 -7 -4 -4 -9
7 -8 18 -9 18 -9 2z"/>
<path d="M1490 1356 c0 -2 7 -7 16 -10 8 -3 12 -2 9 4 -6 10 -25 14 -25 6z"/>
<path d="M1672 1328 c-10 -30 -10 -31 3 -14 13 17 21 46 12 46 -1 0 -8 -15
-15 -32z"/>
<path d="M1420 1340 c0 -5 5 -10 11 -10 5 0 7 5 4 10 -3 6 -8 10 -11 10 -2 0
-4 -4 -4 -10z"/>
<path d="M1040 1333 c1 -16 25 -38 45 -41 58 -8 77 -7 85 3 6 7 -4 9 -32 7
-26 -3 -38 -1 -34 6 3 6 -1 8 -12 5 -11 -2 -26 3 -36 12 -9 9 -16 13 -16 8z"/>
<path d="M1343 1314 c-9 -14 -26 -30 -37 -34 -16 -7 -17 -9 -4 -9 9 -1 25 10
36 24 14 17 22 21 25 13 3 -7 6 -3 6 10 1 29 -5 28 -26 -4z"/>
<path d="M1200 1321 c0 -5 -3 -18 -7 -28 -6 -17 -6 -17 10 -1 19 18 22 38 7
38 -5 0 -10 -4 -10 -9z"/>
<path d="M1490 1322 c0 -6 -8 -13 -17 -15 -16 -4 -16 -5 -1 -6 18 -1 34 16 24
26 -3 4 -6 1 -6 -5z"/>
<path d="M1005 1309 c-4 -6 -5 -12 -2 -15 2 -3 7 2 10 11 7 17 1 20 -8 4z"/>
<path d="M897 1299 c7 -7 15 -10 18 -7 3 3 -2 9 -12 12 -14 6 -15 5 -6 -5z"/>
<path d="M1386 1301 c-4 -5 3 -7 14 -4 23 6 26 13 6 13 -8 0 -17 -4 -20 -9z"/>
<path d="M1455 1273 c-13 -10 -35 -13 -66 -10 -34 3 -44 1 -36 -7 6 -7 27 -9
51 -6 41 5 85 24 76 33 -3 3 -14 -1 -25 -10z"/>
<path d="M1045 1260 c10 -11 20 -20 23 -20 3 0 -3 9 -13 20 -10 11 -20 20 -23
20 -3 0 3 -9 13 -20z"/>
<path d="M1560 1265 c7 -9 15 -13 17 -11 7 7 -7 26 -19 26 -6 0 -6 -6 2 -15z"/>
<path d="M805 1247 c1 -12 7 -32 14 -44 9 -18 9 -23 -1 -23 -9 0 -9 -3 0 -12
19 -19 40 6 22 27 -15 18 0 21 18 3 9 -9 12 -7 12 9 0 22 -28 27 -42 8 -4 -5
-8 2 -8 17 0 15 -4 29 -8 32 -4 2 -7 -5 -7 -17z"/>
<path d="M1248 1263 c7 -3 16 -2 19 1 4 3 -2 6 -13 5 -11 0 -14 -3 -6 -6z"/>
<path d="M944 1240 c0 -13 4 -16 10 -10 7 7 7 13 0 20 -6 6 -10 3 -10 -10z"/>
<path d="M1089 1255 c-9 -67 7 -125 27 -94 4 8 3 9 -4 5 -9 -5 -12 7 -12 39 0
32 3 44 12 39 7 -4 8 -3 4 4 -7 12 -25 16 -27 7z"/>
<path d="M1138 1243 c6 -2 18 -2 25 0 6 3 1 5 -13 5 -14 0 -19 -2 -12 -5z"/>
<path d="M1265 1240 c-3 -5 0 -8 7 -5 10 4 13 -6 11 -40 0 -25 2 -45 6 -45 3
0 6 23 6 50 0 47 -14 66 -30 40z"/>
<path d="M1612 1241 c-11 -7 -11 -9 2 -14 10 -4 16 -1 16 8 0 17 -1 17 -18 6z"/>
<path d="M994 1230 c16 -5 33 -15 37 -22 7 -10 9 -10 9 -1 0 15 -32 33 -57 32
-10 0 -6 -4 11 -9z"/>
<path d="M1188 1228 c6 -6 18 -8 28 -6 14 3 12 5 -9 10 -19 3 -25 2 -19 -4z"/>
<path d="M1385 1230 c-8 -12 20 -24 35 -15 6 3 8 11 5 16 -8 12 -32 12 -40 -1z"/>
<path d="M1141 1225 c0 -5 6 -21 14 -35 8 -14 14 -20 14 -15 0 6 -6 21 -14 35
-8 14 -14 21 -14 15z"/>
<path d="M1539 1213 c-13 -16 -12 -17 4 -4 9 8 20 11 23 9 3 -3 -7 -15 -22
-27 -20 -16 -30 -18 -40 -10 -8 6 -11 16 -7 23 4 6 -1 5 -11 -3 -10 -8 -15
-23 -13 -33 3 -11 -3 -24 -16 -33 -12 -8 -16 -15 -10 -15 7 0 15 5 18 10 4 6
10 8 15 5 5 -3 11 -1 14 4 4 5 2 12 -4 16 -6 4 -8 11 -4 16 3 5 10 7 15 3 5
-3 7 -10 4 -15 -4 -5 -2 -9 2 -9 15 0 74 66 67 73 -11 11 -21 8 -35 -10z"/>
<path d="M1336 1204 c-9 -24 -2 -26 12 -4 7 11 8 20 3 20 -5 0 -12 -7 -15 -16z"/>
<path d="M877 1197 c-2 -6 -5 -16 -5 -20 -1 -4 -11 -17 -24 -27 -13 -11 -19
-19 -15 -20 4 0 18 9 30 21 19 17 23 18 25 5 4 -17 32 -22 32 -6 0 6 -4 10
-10 10 -5 0 -10 9 -10 19 0 24 -16 36 -23 18z"/>
<path d="M1210 1180 c6 -11 13 -20 16 -20 2 0 0 9 -6 20 -6 11 -13 20 -16 20
-2 0 0 -9 6 -20z"/>
<path d="M1548 1165 c-21 -19 -32 -35 -24 -35 8 0 17 7 20 16 3 9 11 12 18 8
7 -4 10 -3 5 1 -4 5 0 17 10 27 26 29 11 20 -29 -17z"/>
<path d="M1000 1178 c0 -4 4 -8 9 -8 6 0 12 4 15 8 3 5 -1 9 -9 9 -8 0 -15 -4
-15 -9z"/>
<path d="M1040 1186 c0 -2 7 -7 16 -10 8 -3 12 -2 9 4 -6 10 -25 14 -25 6z"/>
<path d="M1350 1177 c0 -10 8 -17 18 -17 9 0 13 4 7 8 -5 4 -13 11 -17 16 -5
5 -8 2 -8 -7z"/>
<path d="M1430 1160 c0 -5 5 -10 10 -10 6 0 10 5 10 10 0 6 -4 10 -10 10 -5 0
-10 -4 -10 -10z"/>
<path d="M945 1130 c3 -5 8 -10 11 -10 2 0 4 5 4 10 0 6 -5 10 -11 10 -5 0 -7
-4 -4 -10z"/>
<path d="M1168 1133 c18 -2 45 -2 60 0 15 2 0 4 -33 4 -33 0 -45 -2 -27 -4z"/>
<path d="M920 1126 c0 -2 8 -10 18 -17 15 -13 16 -12 3 4 -13 16 -21 21 -21
13z"/>
<path d="M1349 1108 c14 -19 2 -25 -14 -9 -13 12 -59 -24 -50 -39 11 -17 35
-12 28 7 -5 12 -3 14 7 8 8 -5 11 -4 7 1 -3 6 9 11 29 11 18 1 31 -3 28 -8 -7
-12 3 -11 28 2 17 9 18 13 7 20 -8 5 -22 6 -32 3 -10 -3 -26 0 -35 8 -15 12
-16 11 -3 -4z"/>
<path d="M910 1100 c0 -5 5 -10 11 -10 5 0 7 5 4 10 -3 6 -8 10 -11 10 -2 0
-4 -4 -4 -10z"/>
<path d="M997 1095 c-5 -11 2 -13 29 -11 19 1 37 -2 41 -6 3 -5 11 -7 19 -4
19 7 18 -8 -1 -24 -11 -9 -15 -9 -15 -1 0 9 -5 9 -20 1 -14 -7 -20 -7 -20 0 0
19 -16 10 -17 -10 -2 -17 1 -19 19 -9 15 8 22 8 28 0 5 -9 11 -7 20 4 8 9 29
24 48 34 l34 18 -46 -2 c-34 -2 -49 2 -56 14 -8 13 -11 14 -19 2 -6 -9 -11
-10 -15 -2 -10 15 -23 14 -29 -4z"/>
<path d="M1466 1095 c4 -8 10 -12 15 -9 14 8 10 24 -6 24 -9 0 -12 -6 -9 -15z"/>
<path d="M946 1079 c-15 -14 -16 -19 -5 -19 8 0 20 9 27 20 15 25 3 25 -22 -1z"/>
<path d="M1200 1075 c0 -8 5 -15 10 -15 6 0 10 7 10 15 0 8 -4 15 -10 15 -5 0
-10 -7 -10 -15z"/>
<path d="M976 1055 c-3 -9 0 -15 9 -15 8 0 15 7 15 15 0 8 -4 15 -9 15 -5 0
-11 -7 -15 -15z"/>
<path d="M1340 1051 c12 -9 10 -11 -10 -11 -20 0 -22 -2 -10 -10 8 -5 21 -10
28 -10 18 0 11 32 -8 37 -13 4 -13 3 0 -6z"/>
<path d="M1395 1050 c-8 -13 5 -13 25 0 13 8 13 10 -2 10 -9 0 -20 -4 -23 -10z"/>
<path d="M1139 1031 c-13 -11 -22 -22 -19 -24 3 -3 16 3 29 14 13 11 22 22 19
25 -3 2 -16 -4 -29 -15z"/>
<path d="M1171 1020 c-23 -20 -18 -27 8 -11 9 6 19 4 29 -5 8 -8 17 -12 21 -9
3 4 -2 11 -12 16 -9 6 -15 14 -12 20 10 15 -9 9 -34 -11z"/>
<path d="M1220 1030 c0 -9 39 -25 46 -18 2 3 -7 10 -21 16 -14 6 -25 7 -25 2z"/>
<path d="M122 438 c-7 -7 -12 -29 -12 -50 0 -31 5 -41 24 -50 14 -6 33 -7 43
-3 10 5 21 7 26 7 4 -1 7 5 7 15 0 15 -1 15 -18 0 -48 -44 -94 12 -62 74 12
22 9 24 -8 7z"/>
<path d="M202 430 c0 -14 2 -19 5 -12 2 6 2 18 0 25 -3 6 -5 1 -5 -13z"/>
<path d="M271 432 c-13 -24 -15 -43 -2 -23 7 10 13 5 26 -22 9 -20 14 -41 10
-46 -3 -7 3 -11 16 -11 18 0 19 3 9 14 -6 8 -20 36 -29 62 -17 44 -19 46 -30
26z"/>
<path d="M370 444 c0 -14 45 -104 52 -104 12 0 10 7 -17 60 -23 45 -35 60 -35
44z"/>
<path d="M470 396 c0 -34 -5 -56 -12 -59 -7 -3 0 -6 15 -6 19 -1 26 3 21 11
-4 7 -6 34 -5 60 1 29 -2 48 -8 48 -7 0 -11 -22 -11 -54z"/>
<path d="M659 399 c2 -36 -1 -54 -10 -60 -10 -6 -5 -9 16 -9 22 0 26 3 17 12
-7 7 -12 34 -12 60 0 26 -3 48 -7 48 -5 0 -6 -23 -4 -51z"/>
<path d="M817 437 c-4 -10 -2 -17 2 -17 16 0 40 -74 27 -82 -6 -4 3 -8 19 -8
18 0 25 3 18 8 -7 4 -23 32 -36 61 -17 39 -25 50 -30 38z"/>
<path d="M960 396 c0 -34 -5 -56 -12 -59 -7 -3 6 -6 30 -6 68 -1 103 48 67 95
-14 18 -14 17 -5 -10 14 -37 -10 -79 -43 -74 -19 3 -22 9 -22 56 0 28 -3 52
-7 52 -5 0 -8 -24 -8 -54z"/>
<path d="M1100 398 c0 -36 -5 -58 -12 -61 -7 -3 8 -6 34 -6 26 -1 49 3 53 8 3
6 -9 8 -29 4 l-35 -5 1 51 c0 29 -3 55 -6 58 -3 4 -6 -19 -6 -49z"/>
<path d="M1156 435 c4 -8 8 -15 10 -15 2 0 4 7 4 15 0 8 -4 15 -10 15 -5 0 -7
-7 -4 -15z"/>
<path d="M1260 396 c0 -34 -5 -56 -12 -59 -7 -3 7 -5 32 -5 25 0 35 3 23 5
-21 4 -23 10 -23 59 0 30 -4 54 -10 54 -5 0 -10 -24 -10 -54z"/>
<path d="M1402 398 c-1 -34 -7 -58 -14 -61 -7 -3 1 -6 17 -6 17 0 25 3 18 7
-6 4 -13 32 -16 62 l-3 55 -2 -57z"/>
<path d="M1469 399 c2 -36 -1 -54 -10 -60 -10 -6 -4 -8 16 -8 17 0 24 3 18 6
-8 3 -13 25 -13 59 0 30 -3 54 -7 54 -5 0 -6 -23 -4 -51z"/>
<path d="M1565 405 c2 -51 18 -75 49 -74 19 1 18 2 -4 8 -23 6 -25 12 -25 59
0 31 -4 52 -11 52 -6 0 -10 -18 -9 -45z"/>
<path d="M1738 405 c3 -26 -1 -52 -8 -60 -11 -13 -8 -15 16 -14 16 0 23 3 17
6 -8 3 -13 25 -13 59 0 30 -3 54 -8 54 -4 0 -6 -20 -4 -45z"/>
<path d="M1847 436 c-4 -9 -3 -16 2 -16 10 0 32 -71 25 -82 -3 -4 25 -7 63 -7
37 1 58 4 46 6 -21 4 -23 10 -23 59 0 30 -4 54 -10 54 -5 0 -10 -25 -10 -55 0
-47 -3 -55 -19 -55 -12 0 -26 17 -43 56 -17 37 -27 50 -31 40z"/>
<path d="M560 437 c0 -2 9 -22 20 -45 12 -24 18 -47 15 -52 -3 -6 2 -10 13
-10 17 0 17 3 -7 55 -14 30 -29 55 -33 55 -4 0 -8 -1 -8 -3z"/>
<path d="M716 427 c3 -8 -2 -19 -10 -26 -13 -11 -13 -16 6 -42 12 -16 27 -29
34 -29 7 0 2 11 -11 25 -26 25 -32 45 -15 45 6 0 10 9 10 20 0 11 -4 20 -10
20 -5 0 -7 -6 -4 -13z"/>
<path d="M1335 389 c0 -42 2 -47 13 -32 16 22 16 58 -1 71 -9 8 -12 0 -12 -39z"/>
<path d="M1518 417 c-3 -19 -2 -25 4 -19 6 6 8 18 6 28 -3 14 -5 12 -10 -9z"/>
<path d="M2015 390 c0 -37 3 -46 13 -38 16 13 16 63 -1 76 -9 8 -12 0 -12 -38z"/>
<path d="M2077 433 c-4 -3 -7 -23 -7 -44 0 -40 19 -59 57 -59 47 0 82 72 48
100 -13 11 -14 9 -9 -18 8 -39 -10 -72 -40 -72 -34 0 -50 24 -43 65 6 36 5 40
-6 28z"/>
<path d="M2210 420 c0 -4 16 -18 35 -30 19 -12 35 -26 35 -31 0 -16 -32 -23
-51 -10 -11 6 -19 7 -19 1 0 -5 12 -13 26 -16 29 -8 60 16 51 39 -6 17 -77 60
-77 47z"/>
<path d="M1141 394 c0 -11 3 -14 6 -6 3 7 2 16 -1 19 -3 4 -6 -2 -5 -13z"/>
<path d="M520 340 c0 -6 7 -10 15 -10 8 0 15 2 15 4 0 2 -7 6 -15 10 -8 3 -15
1 -15 -4z"/>
<path d="M775 340 c-3 -5 1 -10 10 -10 9 0 13 5 10 10 -3 6 -8 10 -10 10 -2 0
-7 -4 -10 -10z"/>
<path d="M1805 340 c-3 -5 1 -10 10 -10 9 0 13 5 10 10 -3 6 -8 10 -10 10 -2
0 -7 -4 -10 -10z"/>
<path d="M228 333 c6 -2 18 -2 25 0 6 3 1 5 -13 5 -14 0 -19 -2 -12 -5z"/>
<path d="M358 333 c6 -2 18 -2 25 0 6 3 1 5 -13 5 -14 0 -19 -2 -12 -5z"/>
<path d="M465 140 c0 -27 3 -50 8 -50 4 0 7 23 7 50 0 28 -3 50 -7 50 -5 0 -8
-22 -8 -50z"/>
<path d="M568 167 c17 -18 19 -26 9 -36 -10 -10 -8 -11 6 -5 13 5 20 1 24 -15
3 -11 12 -21 20 -21 11 0 4 14 -20 44 -20 24 -33 46 -30 50 4 3 -2 6 -12 6
-17 0 -17 -2 3 -23z"/>
<path d="M610 179 c0 -5 5 -7 10 -4 6 3 10 8 10 11 0 2 -4 4 -10 4 -5 0 -10
-5 -10 -11z"/>
<path d="M661 140 c0 -27 4 -50 9 -50 6 0 10 23 10 50 0 28 -4 50 -9 50 -4 0
-9 -22 -10 -50z"/>
<path d="M715 140 c0 -65 12 -65 17 0 2 29 -1 50 -7 50 -5 0 -10 -22 -10 -50z"/>
<path d="M765 140 c0 -65 12 -65 17 0 2 29 -1 50 -7 50 -5 0 -10 -22 -10 -50z"/>
<path d="M865 140 c0 -27 3 -50 8 -50 4 0 7 23 7 50 0 28 -3 50 -7 50 -5 0 -8
-22 -8 -50z"/>
<path d="M955 140 c0 -27 3 -50 8 -50 4 0 7 11 7 24 0 15 7 26 18 29 16 4 16
5 0 6 -11 1 -18 9 -18 21 0 11 -3 20 -7 20 -5 0 -8 -22 -8 -50z"/>
<path d="M1073 183 c-19 -7 -16 -68 5 -84 14 -11 15 -11 5 1 -16 18 -17 62 -1
78 13 13 11 14 -9 5z"/>
<path d="M1188 183 c7 -3 16 -2 19 1 4 3 -2 6 -13 5 -11 0 -14 -3 -6 -6z"/>
<path d="M1237 183 c-16 -15 -5 -34 29 -48 33 -13 35 -17 23 -33 -13 -15 -12
-16 3 -3 23 17 8 46 -28 55 -17 5 -24 12 -20 21 6 16 3 19 -7 8z"/>
<path d="M1285 180 c3 -5 8 -10 11 -10 2 0 4 5 4 10 0 6 -5 10 -11 10 -5 0 -7
-4 -4 -10z"/>
<path d="M1450 181 c0 -6 4 -12 9 -15 5 -3 12 -22 15 -41 4 -19 12 -35 18 -35
5 0 8 6 5 13 -2 6 -10 29 -18 50 -12 34 -29 50 -29 28z"/>
<path d="M1510 179 c0 -5 5 -7 10 -4 6 3 10 8 10 11 0 2 -4 4 -10 4 -5 0 -10
-5 -10 -11z"/>
<path d="M1545 140 c0 -65 12 -65 17 0 2 29 -1 50 -7 50 -5 0 -10 -22 -10 -50z"/>
<path d="M1620 151 c0 -25 6 -43 18 -52 15 -13 16 -12 3 3 -8 10 -12 32 -9 53
2 19 0 35 -4 35 -4 0 -8 -17 -8 -39z"/>
<path d="M1692 155 c-1 -23 -5 -45 -9 -51 -5 -5 -2 -4 5 2 8 7 12 26 9 50 l-4
39 -1 -40z"/>
<path d="M1735 140 c0 -27 3 -50 8 -50 4 0 7 11 7 25 0 32 13 32 40 -2 l22
-28 -16 27 c-13 23 -13 27 -1 32 17 6 20 32 6 40 -5 4 -7 -3 -4 -14 4 -16 0
-20 -21 -20 -19 0 -26 5 -26 20 0 11 -3 20 -7 20 -5 0 -8 -22 -8 -50z"/>
<path d="M1873 179 c3 -8 11 -31 18 -51 7 -21 16 -38 20 -38 10 0 -20 88 -33
96 -6 4 -8 1 -5 -7z"/>
<path d="M1127 134 c7 -3 10 -11 7 -19 -3 -7 -1 -16 5 -20 7 -4 11 4 11 19 0
18 -5 26 -17 25 -10 0 -13 -3 -6 -5z"/>
<path d="M1425 119 c-10 -30 -2 -32 12 -3 6 13 7 24 3 24 -5 0 -12 -9 -15 -21z"/>
<path d="M1858 133 c7 -3 16 -2 19 1 4 3 -2 6 -13 5 -11 0 -14 -3 -6 -6z"/>
<path d="M516 105 c-16 -12 -17 -15 -4 -15 9 0 18 7 22 15 7 18 6 18 -18 0z"/>
<path d="M1020 105 c-7 -9 -8 -15 -2 -15 5 0 12 7 16 15 3 8 4 15 2 15 -2 0
-9 -7 -16 -15z"/>
<path d="M1230 104 c0 -8 5 -12 10 -9 6 4 8 11 5 16 -9 14 -15 11 -15 -7z"/>
<path d="M1836 105 c-3 -8 -1 -15 4 -15 6 0 10 7 10 15 0 8 -2 15 -4 15 -2 0
-6 -7 -10 -15z"/>
<path d="M910 100 c-13 -8 -12 -10 3 -10 9 0 17 5 17 10 0 12 -1 12 -20 0z"/>
<path d="M1178 93 c6 -2 18 -2 25 0 6 3 1 5 -13 5 -14 0 -19 -2 -12 -5z"/>
</g>
</svg>
