<?xml version="1.0" standalone="no"?>
<!DOCTYPE svg PUBLIC "-//W3C//DTD SVG 20010904//EN"
 "http://www.w3.org/TR/2001/REC-SVG-20010904/DTD/svg10.dtd">
<svg version="1.0" xmlns="http://www.w3.org/2000/svg"
 width="220.000000pt" height="220.000000pt" viewBox="0 0 220.000000 220.000000"
 preserveAspectRatio="xMidYMid meet">
<metadata>
Created by potrace 1.16, written by Peter Selinger 2001-2019
</metadata>
<g transform="translate(0.000000,220.000000) scale(0.100000,-0.100000)"
fill="#000000" stroke="none">
<path d="M400 1945 c0 -192 1 -205 18 -205 29 0 30 -5 11 -77 -31 -117 -24
-271 17 -405 4 -14 -1 -18 -20 -18 l-26 0 0 -205 0 -205 685 0 685 0 0 205 0
205 -26 0 c-19 0 -25 4 -20 15 39 103 51 302 23 400 -8 28 -16 57 -18 65 -3 9
5 16 19 18 22 3 22 4 22 208 l0 204 -685 0 -685 0 0 -205z m240 72 c0 -1 -25
-29 -55 -62 l-55 -59 0 62 0 62 55 0 c30 0 55 -1 55 -3z m1000 -77 l0 -80
-310 0 c-280 0 -316 -2 -365 -19 -77 -27 -140 -76 -185 -144 -50 -74 -64 -123
-64 -217 1 -60 6 -88 29 -137 15 -35 34 -68 41 -74 28 -23 12 -29 -75 -29
l-89 0 -20 48 c-61 142 -56 296 14 441 34 69 158 195 230 234 98 51 133 56
477 56 l317 1 0 -80z m-435 -240 c57 -31 108 -104 119 -169 15 -95 -35 -197
-121 -248 -40 -24 -59 -28 -119 -28 -61 0 -77 4 -120 30 -68 43 -107 108 -112
190 -5 78 10 126 56 177 81 90 189 107 297 48z m384 -25 c32 -80 40 -215 17
-302 -47 -186 -186 -334 -368 -394 -71 -23 -83 -24 -388 -24 l-315 0 -3 83 -3
83 308 -2 c169 -1 322 2 338 6 173 44 298 218 282 392 -6 64 -47 172 -73 194
-29 24 -11 30 83 27 l98 -3 24 -60z m57 -601 c-3 -9 -6 -40 -6 -70 l0 -54 -66
0 -66 0 63 69 c63 69 87 86 75 55z"/>
<path d="M1019 1595 c-28 -15 -59 -70 -59 -104 0 -39 28 -89 59 -105 65 -34
146 -12 175 48 20 42 20 69 1 110 -29 60 -114 85 -176 51z"/>
<path d="M457 570 c-123 -31 -198 -117 -213 -245 -8 -66 15 -148 56 -197 62
-75 189 -112 300 -89 70 15 76 19 84 58 l7 32 -46 -25 c-57 -32 -127 -35 -182
-7 -58 29 -93 105 -93 199 0 150 65 236 178 236 34 0 55 -8 89 -31 45 -32 46
-32 56 17 5 20 -1 26 -30 39 -45 18 -156 25 -206 13z"/>
<path d="M1054 555 c-3 -6 -3 -122 -2 -259 l3 -248 135 1 c74 1 152 6 172 12
55 14 119 68 147 124 36 68 37 199 3 262 -21 40 -65 81 -107 99 -31 13 -347
21 -351 9z m292 -61 c48 -36 69 -89 69 -179 0 -65 -5 -89 -25 -129 -36 -72
-66 -90 -156 -94 l-74 -4 0 217 0 217 79 -3 c61 -3 86 -9 107 -25z"/>
<path d="M1645 558 c-3 -8 -4 -126 -3 -263 l3 -250 139 0 139 0 2 31 2 30 -89
-4 -89 -4 3 98 3 99 83 -1 82 -1 0 27 0 27 -82 -1 -83 -1 -3 84 -3 83 89 -4
89 -4 -2 30 -2 31 -137 3 c-105 2 -138 0 -141 -10z"/>
<path d="M800 300 l0 -260 55 0 55 0 0 260 0 260 -55 0 -55 0 0 -260z"/>
</g>
</svg>
