<?xml version="1.0" standalone="no"?>
<!DOCTYPE svg PUBLIC "-//W3C//DTD SVG 20010904//EN"
 "http://www.w3.org/TR/2001/REC-SVG-20010904/DTD/svg10.dtd">
<svg version="1.0" xmlns="http://www.w3.org/2000/svg"
 width="200.000000pt" height="200.000000pt" viewBox="0 0 200.000000 200.000000"
 preserveAspectRatio="xMidYMid meet">
<metadata>
Created by potrace 1.16, written by Peter Selinger 2001-2019
</metadata>
<g transform="translate(0.000000,200.000000) scale(0.100000,-0.100000)"
fill="#000000" stroke="none">
<path d="M860 1904 c0 -14 22 -44 33 -44 8 0 8 3 -2 9 -7 5 -11 13 -7 19 3 5
-1 12 -9 16 -8 3 -15 3 -15 0z"/>
<path d="M1124 1902 c-14 -9 -26 -42 -15 -42 4 0 13 11 19 25 13 27 12 28 -4
17z"/>
<path d="M815 1892 c-28 -6 -45 -22 -44 -41 0 -10 4 -7 11 9 l10 25 9 -22 c11
-29 25 -29 40 -2 13 25 2 37 -26 31z"/>
<path d="M1147 1886 c-2 -6 3 -16 12 -22 13 -10 13 -14 2 -28 -7 -9 -9 -16 -4
-16 5 0 17 14 27 31 l19 32 13 -24 c7 -13 13 -19 14 -13 1 30 -74 67 -83 40z"/>
<path d="M932 1850 c-14 -19 -22 -44 -22 -70 0 -34 -4 -42 -25 -52 -41 -18
-28 -43 22 -43 32 0 43 4 47 19 3 11 9 15 17 10 9 -5 11 1 6 24 -5 24 -2 33
16 45 22 14 22 15 3 36 -24 26 -14 38 19 23 19 -9 25 -9 25 0 0 6 3 8 7 4 4
-4 7 -30 8 -59 0 -39 4 -52 15 -52 19 0 22 84 4 102 -7 7 -14 17 -16 22 -6 18
-65 23 -81 7 -20 -20 -28 -20 -21 -1 9 23 0 18 -24 -15z m-17 -140 c3 -5 1
-10 -4 -10 -6 0 -11 5 -11 10 0 6 2 10 4 10 3 0 8 -4 11 -10z"/>
<path d="M726 1832 c-10 -9 -6 -32 5 -32 6 0 17 6 24 14 12 12 12 15 -5 19
-10 3 -21 2 -24 -1z"/>
<path d="M1255 1830 c-3 -6 -12 -7 -18 -3 -7 4 -6 0 2 -10 7 -9 21 -17 31 -17
10 0 23 -7 30 -15 7 -9 15 -13 17 -11 3 2 -9 18 -25 36 -18 19 -33 27 -37 20z"/>
<path d="M836 1817 c3 -10 9 -15 12 -12 3 3 0 11 -7 18 -10 9 -11 8 -5 -6z"/>
<path d="M691 1793 c-7 -8 -11 -16 -8 -19 2 -2 10 2 17 11 17 20 9 27 -9 8z"/>
<path d="M790 1790 c0 -6 7 -10 15 -10 8 0 15 2 15 4 0 2 -7 6 -15 10 -8 3
-15 1 -15 -4z"/>
<path d="M1170 1784 l-25 -15 25 7 c14 3 29 10 35 15 15 14 -7 10 -35 -7z"/>
<path d="M741 1755 c-11 -14 -23 -39 -26 -55 -4 -17 -16 -37 -28 -45 -11 -8
-18 -17 -15 -20 3 -3 17 7 30 23 l25 29 19 -28 c14 -21 20 -25 26 -14 10 16 0
45 -15 45 -7 0 -7 -4 1 -12 7 -7 12 -16 12 -22 0 -5 -7 -1 -15 10 -16 21 -20
80 -6 88 5 4 7 -3 4 -14 -4 -16 -2 -19 11 -14 9 4 16 3 15 -2 -3 -19 1 -34 11
-34 6 0 10 14 10 30 0 17 -4 30 -10 30 -5 0 -10 7 -10 15 0 22 -16 18 -39 -10z"/>
<path d="M1220 1766 c0 -8 -5 -16 -11 -18 -6 -2 -9 -17 -6 -33 4 -28 5 -29 12
-7 4 12 14 22 22 22 10 0 13 6 9 16 -3 8 -2 12 4 9 15 -9 12 -59 -5 -81 -15
-19 -15 -19 -8 1 3 11 2 17 -2 12 -5 -4 -10 -38 -11 -75 -2 -37 -6 -85 -9
-107 l-6 -40 23 44 22 45 18 -40 c10 -21 18 -33 18 -26 0 7 -8 27 -17 45 -9
18 -16 36 -14 41 1 5 -4 4 -13 -3 -12 -10 -14 -6 -12 26 1 21 10 50 20 65 l18
28 20 -25 c11 -14 25 -25 31 -25 6 0 2 7 -10 15 -12 8 -27 32 -33 53 -18 55
-60 96 -60 58z"/>
<path d="M985 1750 c4 -6 11 -8 16 -5 14 9 11 15 -7 15 -8 0 -12 -5 -9 -10z"/>
<path d="M1067 1715 c-17 -15 -23 -25 -14 -25 8 0 28 -3 46 -6 36 -8 52 16 28
41 -20 20 -27 19 -60 -10z m33 -6 c0 -5 5 -7 10 -4 6 3 10 1 10 -4 0 -13 -3
-13 -24 -5 -18 7 -22 24 -6 24 6 0 10 -5 10 -11z"/>
<path d="M980 1660 c-8 -5 -10 -10 -5 -10 6 0 17 5 25 10 8 5 11 10 5 10 -5 0
-17 -5 -25 -10z"/>
<path d="M1286 1636 c3 -9 2 -16 -4 -16 -15 0 -23 -28 -10 -36 6 -4 8 -3 5 3
-8 12 17 36 26 26 4 -3 7 -2 7 4 0 6 -7 16 -15 23 -13 11 -14 10 -9 -4z"/>
<path d="M695 1629 c-4 -6 -5 -12 -2 -15 2 -3 7 2 10 11 7 17 1 20 -8 4z"/>
<path d="M861 1624 c0 -11 3 -14 6 -6 3 7 2 16 -1 19 -3 4 -6 -2 -5 -13z"/>
<path d="M890 1625 c0 -8 6 -15 13 -15 8 0 14 7 14 15 0 8 -6 15 -14 15 -7 0
-13 -7 -13 -15z"/>
<path d="M930 1625 c0 -8 4 -15 9 -15 5 0 11 7 15 15 3 9 0 15 -9 15 -8 0 -15
-7 -15 -15z"/>
<path d="M975 1631 c-3 -5 -1 -12 5 -16 5 -3 10 1 10 9 0 18 -6 21 -15 7z"/>
<path d="M1023 1627 c0 -7 11 -14 24 -15 16 -1 23 3 23 16 0 14 -2 15 -10 2
-6 -10 -10 -11 -10 -2 0 6 -6 12 -13 12 -8 0 -14 -6 -14 -13z"/>
<path d="M1080 1622 c0 -12 3 -13 12 -4 9 9 15 9 26 -1 12 -10 14 -9 10 3 -6
20 -48 22 -48 2z"/>
<path d="M1150 1625 c0 -8 4 -15 10 -15 5 0 7 7 4 15 -4 8 -8 15 -10 15 -2 0
-4 -7 -4 -15z"/>
<path d="M719 1607 c6 -8 7 -18 3 -22 -4 -5 -1 -5 6 -1 10 6 10 11 1 22 -6 8
-14 14 -16 14 -3 0 0 -6 6 -13z"/>
<path d="M761 1583 c-6 -10 -11 -14 -11 -8 0 5 -9 -7 -20 -28 -11 -20 -20 -45
-19 -54 0 -11 4 -7 9 9 14 45 21 51 36 29 8 -11 14 -24 13 -28 -3 -20 2 -34
10 -28 6 3 12 -19 14 -52 l3 -58 2 58 c1 38 -2 59 -10 62 -8 3 -13 25 -13 60
1 30 0 55 -2 55 -1 0 -7 -8 -12 -17z"/>
<path d="M870 1411 c0 -99 3 -182 8 -184 4 -3 6 75 4 174 l-3 178 128 4 128 3
-132 2 -133 2 0 -179z"/>
<path d="M1158 1583 c7 -3 16 -2 19 1 4 3 -2 6 -13 5 -11 0 -14 -3 -6 -6z"/>
<path d="M792 1550 c0 -19 2 -27 5 -17 2 9 2 25 0 35 -3 9 -5 1 -5 -18z"/>
<path d="M825 1560 c-3 -5 -2 -10 4 -10 5 0 13 5 16 10 3 6 2 10 -4 10 -5 0
-13 -4 -16 -10z"/>
<path d="M996 1561 c-4 -6 -2 -11 4 -11 6 0 8 -5 5 -10 -4 -6 -11 -8 -16 -5
-5 4 -9 2 -9 -4 0 -5 4 -12 8 -15 12 -7 31 29 22 43 -5 9 -10 10 -14 2z"/>
<path d="M1158 1543 c7 -3 16 -2 19 1 4 3 -2 6 -13 5 -11 0 -14 -3 -6 -6z"/>
<path d="M829 1523 c-13 -16 -12 -17 4 -4 9 7 17 15 17 17 0 8 -8 3 -21 -13z"/>
<path d="M736 1505 c-5 -16 -10 -41 -12 -55 -2 -14 -6 -41 -9 -60 -4 -28 -3
-30 4 -10 4 14 15 40 24 57 21 41 21 49 0 32 -15 -13 -15 -12 -4 9 7 13 11 31
9 40 -3 11 -7 7 -12 -13z"/>
<path d="M950 1520 c0 -18 43 -51 54 -40 6 6 1 16 -15 29 -27 22 -39 26 -39
11z"/>
<path d="M1248 1524 c-4 -4 0 -21 9 -38 l16 -31 -23 20 -23 20 18 -35 c10 -19
24 -55 32 -80 l13 -45 -6 45 c-3 25 -7 59 -9 75 -5 41 -19 77 -27 69z"/>
<path d="M1033 1513 c-18 -7 -16 -23 2 -23 8 0 15 7 15 15 0 8 -1 15 -2 14 -2
0 -9 -3 -15 -6z"/>
<path d="M1160 1505 c-8 -9 -8 -15 -2 -15 12 0 26 19 19 26 -2 2 -10 -2 -17
-11z"/>
<path d="M828 1493 c7 -3 16 -2 19 1 4 3 -2 6 -13 5 -11 0 -14 -3 -6 -6z"/>
<path d="M1096 1467 c3 -10 9 -15 12 -12 3 3 0 11 -7 18 -10 9 -11 8 -5 -6z"/>
<path d="M1155 1470 c-3 -5 -2 -10 4 -10 5 0 13 5 16 10 3 6 2 10 -4 10 -5 0
-13 -4 -16 -10z"/>
<path d="M834 1463 c4 -7 2 -13 -3 -13 -6 0 -11 -4 -11 -10 0 -5 6 -10 14 -10
15 0 16 24 1 37 -4 4 -5 2 -1 -4z"/>
<path d="M1160 1410 c10 -6 11 -10 3 -10 -7 0 -13 -4 -13 -10 0 -5 7 -7 15 -4
21 8 19 34 -2 34 -15 0 -16 -2 -3 -10z"/>
<path d="M824 1362 c2 -9 -3 -27 -11 -38 -13 -20 -12 -21 14 -16 20 4 23 7 10
10 -9 2 -15 8 -11 13 3 5 11 6 17 2 8 -4 7 -1 -1 9 -10 13 -10 17 0 20 8 3 7
6 -4 10 -11 5 -15 2 -14 -10z"/>
<path d="M923 1364 c-3 -8 -1 -25 4 -37 l10 -21 5 22 c4 12 2 20 -3 16 -5 -3
-9 0 -9 5 0 6 5 11 10 11 6 0 10 5 10 10 0 16 -20 12 -27 -6z"/>
<path d="M1036 1346 c-17 -16 -23 -31 -19 -45 6 -23 33 -50 33 -33 0 6 -4 14
-10 17 -16 10 -11 52 6 59 49 19 75 -38 32 -68 -12 -9 -18 -16 -12 -16 15 0
41 22 46 40 7 20 -8 47 -32 60 -16 9 -25 6 -44 -14z"/>
<path d="M1158 1353 c7 -3 16 -2 19 1 4 3 -2 6 -13 5 -11 0 -14 -3 -6 -6z"/>
<path d="M1050 1310 c0 -11 6 -20 14 -20 9 0 14 9 13 20 -1 11 -7 20 -14 20
-7 0 -13 -9 -13 -20z"/>
<path d="M1158 1323 c7 -3 16 -2 19 1 4 3 -2 6 -13 5 -11 0 -14 -3 -6 -6z"/>
<path d="M1272 1310 c-7 -11 -12 -25 -12 -32 1 -7 8 0 16 15 18 33 14 46 -4
17z"/>
<path d="M715 1312 c4 -8 11 -26 15 -40 7 -22 8 -23 9 -6 1 11 -6 29 -15 40
-8 10 -12 13 -9 6z"/>
<path d="M756 1305 c4 -8 8 -15 10 -15 2 0 4 7 4 15 0 8 -4 15 -10 15 -5 0 -7
-7 -4 -15z"/>
<path d="M1230 1309 c0 -5 5 -7 10 -4 6 3 10 8 10 11 0 2 -4 4 -10 4 -5 0 -10
-5 -10 -11z"/>
<path d="M1150 1302 c0 -5 7 -9 15 -9 8 0 12 4 9 9 -3 4 -9 8 -15 8 -5 0 -9
-4 -9 -8z"/>
<path d="M828 1293 c7 -3 16 -2 19 1 4 3 -2 6 -13 5 -11 0 -14 -3 -6 -6z"/>
<path d="M785 1280 c-4 -6 -14 -9 -22 -6 -8 3 -11 1 -8 -4 3 -6 12 -10 20 -10
15 0 30 18 22 26 -3 3 -8 0 -12 -6z"/>
<path d="M958 1283 c7 -3 16 -2 19 1 4 3 -2 6 -13 5 -11 0 -14 -3 -6 -6z"/>
<path d="M1200 1282 c0 -19 30 -27 43 -12 9 10 9 12 -4 7 -9 -3 -22 0 -28 6
-8 8 -11 8 -11 -1z"/>
<path d="M823 1254 c0 -16 13 -19 21 -5 3 5 0 11 -7 14 -8 3 -14 -1 -14 -9z"/>
<path d="M1158 1243 c7 -3 16 -2 19 1 4 3 -2 6 -13 5 -11 0 -14 -3 -6 -6z"/>
<path d="M1150 1210 c0 -5 4 -10 9 -10 6 0 13 5 16 10 3 6 -1 10 -9 10 -9 0
-16 -4 -16 -10z"/>
<path d="M820 1199 c0 -5 5 -7 10 -4 6 3 10 8 10 11 0 2 -4 4 -10 4 -5 0 -10
-5 -10 -11z"/>
<path d="M670 1195 c0 -21 47 -66 92 -89 41 -21 67 -26 122 -26 58 0 74 -4 93
-22 23 -21 23 -21 23 -1 0 37 -27 48 -119 48 -95 1 -151 21 -190 71 -12 15
-21 23 -21 19z"/>
<path d="M891 1184 c0 -11 3 -14 6 -6 3 7 2 16 -1 19 -3 4 -6 -2 -5 -13z"/>
<path d="M910 1185 c0 -8 5 -15 10 -15 6 0 10 7 10 15 0 8 -4 15 -10 15 -5 0
-10 -7 -10 -15z"/>
<path d="M995 1189 c-4 -6 -5 -12 -2 -15 2 -3 7 2 10 11 7 17 1 20 -8 4z"/>
<path d="M1031 1184 c0 -11 3 -14 6 -6 3 7 2 16 -1 19 -3 4 -6 -2 -5 -13z"/>
<path d="M1090 1185 c0 -8 5 -15 10 -15 6 0 10 7 10 15 0 8 -4 15 -10 15 -5 0
-10 -7 -10 -15z"/>
<path d="M1120 1191 c0 -6 4 -13 10 -16 6 -3 7 1 4 9 -7 18 -14 21 -14 7z"/>
<path d="M955 1180 c3 -5 8 -10 11 -10 2 0 4 5 4 10 0 6 -5 10 -11 10 -5 0 -7
-4 -4 -10z"/>
<path d="M1065 1180 c3 -5 8 -10 11 -10 2 0 4 5 4 10 0 6 -5 10 -11 10 -5 0
-7 -4 -4 -10z"/>
<path d="M1178 1158 c-10 -10 -14 -18 -9 -18 10 0 36 29 30 34 -2 1 -12 -6
-21 -16z"/>
<path d="M812 1154 c10 -10 20 -16 22 -13 3 3 -5 11 -17 18 -21 13 -21 12 -5
-5z"/>
<path d="M970 1146 c0 -2 7 -7 16 -10 8 -3 12 -2 9 4 -6 10 -25 14 -25 6z"/>
<path d="M490 785 c0 -113 2 -135 15 -135 13 0 15 22 15 135 0 113 -2 135 -15
135 -13 0 -15 -22 -15 -135z"/>
<path d="M570 785 l0 -135 55 0 c42 0 55 3 55 15 0 11 -11 15 -36 15 l-35 0 3
43 c3 39 5 42 31 41 20 0 27 5 27 18 0 13 -8 18 -30 18 -28 0 -30 2 -30 40 0
39 1 40 35 40 28 0 35 4 35 20 0 18 -7 20 -55 20 l-55 0 0 -135z"/>
<path d="M736 901 c-14 -15 -16 -36 -14 -127 3 -108 3 -109 31 -122 22 -11 32
-11 55 0 25 12 27 19 30 76 l3 62 -31 0 c-33 0 -39 -16 -14 -35 23 -16 10 -75
-16 -75 -24 0 -30 19 -30 100 0 38 3 75 6 84 9 23 41 20 49 -4 9 -29 35 -25
35 4 0 48 -71 73 -104 37z"/>
<path d="M890 786 l0 -136 55 0 c42 0 55 3 55 15 0 11 -11 15 -41 15 l-40 0 3
43 c3 39 5 42 31 41 20 0 27 5 27 18 0 13 -8 18 -30 18 -28 0 -30 2 -30 40 l0
40 41 0 c33 0 40 3 37 18 -2 13 -15 18 -56 20 l-52 3 0 -135z"/>
<path d="M1040 786 c0 -113 3 -136 15 -136 11 0 15 19 17 88 l3 87 16 -64 c8
-36 20 -66 26 -68 7 -3 16 13 21 34 26 101 27 101 30 11 3 -80 5 -88 23 -88
19 0 19 6 17 133 -3 128 -4 132 -25 135 -26 4 -37 -17 -48 -91 -4 -26 -10 -47
-14 -47 -4 0 -13 30 -21 68 -13 57 -18 67 -37 70 -23 3 -23 3 -23 -132z"/>
<path d="M1250 785 l0 -135 55 0 c42 0 55 3 55 15 0 11 -11 15 -36 15 l-35 0
3 43 c3 37 6 42 28 42 16 0 26 6 28 18 3 13 -3 17 -27 17 -29 0 -31 2 -31 40
0 39 1 40 35 40 28 0 35 4 35 20 0 18 -7 20 -55 20 l-55 0 0 -135z"/>
<path d="M1400 786 c0 -114 2 -136 15 -136 12 0 15 13 15 55 0 39 4 55 13 55
7 0 21 -25 31 -55 13 -41 22 -55 36 -55 18 0 18 2 3 53 -8 28 -17 55 -19 58
-2 4 3 12 11 19 20 17 20 103 0 120 -8 7 -35 15 -60 18 l-45 5 0 -137z m79 76
c16 -30 2 -62 -25 -62 -21 0 -24 5 -24 40 0 33 3 40 20 40 10 0 24 -8 29 -18z"/>
<path d="M0 535 c0 -8 9 -15 20 -15 11 0 20 7 20 15 0 8 -9 15 -20 15 -11 0
-20 -7 -20 -15z"/>
<path d="M210 535 c0 -12 14 -15 65 -15 51 0 65 3 65 15 0 12 -14 15 -65 15
-51 0 -65 -3 -65 -15z"/>
<path d="M622 533 c4 -23 42 -27 186 -18 86 5 112 10 112 21 0 11 -28 14 -151
14 -138 0 -150 -1 -147 -17z"/>
<path d="M1070 536 c0 -13 115 -26 242 -26 51 0 58 2 58 20 0 19 -7 20 -150
20 -119 0 -150 -3 -150 -14z"/>
<path d="M1660 535 c0 -12 13 -15 59 -15 43 0 60 4 65 15 4 12 -6 15 -59 15
-51 0 -65 -3 -65 -15z"/>
<path d="M1960 535 c0 -8 9 -15 20 -15 11 0 20 7 20 15 0 8 -9 15 -20 15 -11
0 -20 -7 -20 -15z"/>
<path d="M105 410 c-8 -13 3 -50 16 -50 5 0 9 -7 9 -16 0 -10 -6 -14 -15 -10
-8 3 -15 1 -15 -4 0 -6 9 -10 20 -10 15 0 20 7 20 25 0 14 -4 25 -9 25 -5 0
-12 7 -15 16 -5 12 -2 15 10 10 10 -4 14 -1 12 6 -6 16 -25 21 -33 8z"/>
<path d="M407 414 c-4 -4 -7 -27 -7 -51 0 -37 3 -43 21 -43 18 0 20 5 17 47
-3 44 -15 62 -31 47z m23 -49 c0 -19 -4 -35 -10 -35 -5 0 -10 16 -10 35 0 19
5 35 10 35 6 0 10 -16 10 -35z"/>
<path d="M533 404 c-3 -8 2 -23 11 -33 21 -23 21 -42 -1 -34 -11 4 -14 3 -9
-5 4 -7 13 -12 21 -12 25 0 28 21 7 49 l-20 28 29 1 c27 1 29 -2 31 -41 l1
-42 6 45 c4 25 6 45 6 46 0 1 -17 4 -38 7 -28 4 -39 2 -44 -9z"/>
<path d="M1011 406 c-7 -8 -11 -30 -9 -48 2 -25 8 -33 23 -33 13 0 21 8 23 23
2 12 -1 22 -7 22 -5 0 -12 -10 -14 -22 -3 -15 -5 -9 -6 14 -1 32 2 36 17 31
15 -6 15 -5 3 10 -16 21 -16 20 -30 3z"/>
<path d="M1113 404 c-3 -8 2 -23 11 -33 21 -23 21 -42 -1 -34 -11 4 -14 3 -9
-5 9 -15 33 -16 41 -2 4 6 0 22 -9 35 -20 31 -21 30 9 33 23 2 25 -2 27 -41
l1 -42 6 45 c4 25 6 45 6 46 0 1 -17 4 -38 7 -28 4 -39 2 -44 -9z"/>
<path d="M1257 414 c-4 -4 -7 -27 -7 -51 0 -37 3 -43 21 -43 18 0 20 5 17 47
-3 44 -15 62 -31 47z m23 -49 c0 -19 -4 -35 -10 -35 -5 0 -10 16 -10 35 0 19
5 35 10 35 6 0 10 -16 10 -35z"/>
<path d="M1707 414 c-12 -12 -8 -41 8 -54 8 -7 15 -17 15 -22 0 -6 -7 -8 -15
-4 -8 3 -15 1 -15 -4 0 -6 9 -10 20 -10 24 0 27 32 5 50 -20 16 -19 34 1 26
10 -4 14 -1 12 6 -5 14 -22 21 -31 12z"/>
<path d="M13 365 c0 -27 2 -38 4 -22 2 15 2 37 0 50 -2 12 -4 0 -4 -28z"/>
<path d="M41 363 c1 -42 2 -44 9 -18 l7 30 7 -27 c12 -43 26 -33 26 17 0 44
-14 61 -23 28 -4 -17 -5 -17 -6 0 0 9 -5 17 -11 17 -5 0 -9 -21 -9 -47z"/>
<path d="M158 365 c2 -25 8 -45 12 -45 4 0 10 20 12 45 2 35 0 45 -12 45 -12
0 -14 -10 -12 -45z"/>
<path d="M200 365 c0 -25 5 -45 10 -45 6 0 10 20 10 45 0 25 -4 45 -10 45 -5
0 -10 -20 -10 -45z"/>
<path d="M238 365 c2 -25 8 -45 12 -45 4 0 10 20 12 45 2 35 0 45 -12 45 -12
0 -14 -10 -12 -45z"/>
<path d="M282 368 c2 -35 7 -43 23 -43 16 0 21 8 23 43 4 55 -16 55 -21 0 l-4
-43 -1 43 c-1 23 -7 42 -13 42 -6 0 -9 -17 -7 -42z"/>
<path d="M348 365 c2 -25 8 -45 12 -45 4 0 10 20 12 45 2 35 0 45 -12 45 -12
0 -14 -10 -12 -45z"/>
<path d="M480 365 c0 -40 2 -45 23 -44 12 0 16 3 10 6 -7 2 -13 11 -13 18 0 7
6 16 13 18 10 4 10 6 0 6 -7 1 -13 7 -13 15 0 8 6 17 13 19 6 3 2 6 -10 6 -21
1 -23 -4 -23 -44z"/>
<path d="M636 379 c-3 -17 -6 -39 -6 -48 0 -14 2 -14 11 -1 8 11 12 12 16 3 7
-19 22 -15 18 5 -12 59 -16 72 -24 72 -5 0 -11 -14 -15 -31z m21 -21 c-3 -8
-6 -5 -6 6 -1 11 2 17 5 13 3 -3 4 -12 1 -19z"/>
<path d="M688 365 c2 -25 8 -45 12 -45 4 0 10 20 12 45 2 35 0 45 -12 45 -12
0 -14 -10 -12 -45z"/>
<path d="M732 368 c-9 -47 -6 -61 9 -38 8 13 10 13 19 0 8 -12 10 -10 10 10 0
34 -11 70 -21 70 -4 0 -12 -19 -17 -42z m28 -2 c0 -3 -4 -8 -10 -11 -5 -3 -10
-1 -10 4 0 6 5 11 10 11 6 0 10 -2 10 -4z"/>
<path d="M792 368 c-2 -44 0 -48 21 -47 16 1 17 3 5 6 -12 3 -18 17 -21 46
l-4 42 -1 -47z"/>
<path d="M860 366 c0 -39 3 -46 20 -46 38 0 41 83 2 88 -20 3 -22 -1 -22 -42z
m27 -18 c-2 -13 -4 -5 -4 17 -1 22 1 32 4 23 2 -10 2 -28 0 -40z"/>
<path d="M920 365 c0 -40 2 -45 23 -44 12 0 16 3 10 6 -7 2 -13 11 -13 18 0 7
6 16 13 18 10 4 10 6 0 6 -7 1 -13 7 -13 15 0 8 6 17 13 19 6 3 2 6 -10 6 -21
1 -23 -4 -23 -44z"/>
<path d="M1060 365 c0 -40 2 -45 23 -44 12 0 16 3 10 6 -7 2 -13 11 -13 18 0
7 6 16 13 18 10 4 10 6 0 6 -7 1 -13 7 -13 15 0 8 6 17 13 19 6 3 2 6 -10 6
-21 1 -23 -4 -23 -44z"/>
<path d="M1223 365 c0 -27 2 -38 4 -22 2 15 2 37 0 50 -2 12 -4 0 -4 -28z"/>
<path d="M1311 363 c2 -35 3 -40 6 -18 l5 30 12 -30 13 -30 4 48 c4 46 -5 65
-14 30 -4 -17 -5 -17 -6 0 0 9 -5 17 -11 17 -5 0 -9 -21 -9 -47z"/>
<path d="M1400 365 c0 -40 2 -45 23 -44 16 1 18 2 5 6 -20 5 -25 33 -6 33 9 0
9 3 0 12 -17 17 -15 26 6 31 13 4 11 5 -5 6 -21 1 -23 -4 -23 -44z"/>
<path d="M1450 365 c0 -45 19 -66 21 -22 0 21 1 21 9 2 7 -16 9 -17 9 -3 1 22
-20 68 -31 68 -4 0 -8 -20 -8 -45z"/>
<path d="M1491 393 c1 -10 5 -31 9 -48 7 -27 8 -25 9 18 0 26 -3 47 -9 47 -5
0 -9 -8 -9 -17z"/>
<path d="M1530 365 c0 -25 5 -45 10 -45 6 0 10 7 10 16 0 9 7 22 17 29 21 16
10 45 -17 45 -17 0 -20 -6 -20 -45z m27 13 c-3 -8 -6 -5 -6 6 -1 11 2 17 5 13
3 -3 4 -12 1 -19z"/>
<path d="M1591 363 c1 -28 4 -37 6 -23 l5 24 12 -23 c12 -21 13 -20 13 23 1
39 -2 46 -18 46 -16 0 -19 -7 -18 -47z m29 22 c0 -8 -4 -15 -10 -15 -5 0 -10
7 -10 15 0 8 5 15 10 15 6 0 10 -7 10 -15z"/>
<path d="M1650 365 c0 -40 2 -45 23 -44 16 1 18 2 5 6 -21 5 -24 29 -5 36 10
4 10 6 0 6 -19 1 -15 29 5 34 13 4 11 5 -5 6 -21 1 -23 -4 -23 -44z"/>
<path d="M1760 396 c0 -7 -3 -29 -6 -47 -4 -27 -3 -31 6 -19 9 11 13 12 17 3
2 -7 9 -13 14 -13 8 0 6 22 -8 73 -5 20 -23 23 -23 3z m17 -38 c-3 -8 -6 -5
-6 6 -1 11 2 17 5 13 3 -3 4 -12 1 -19z"/>
<path d="M1811 363 c1 -39 2 -43 9 -23 l8 25 7 -22 c12 -38 20 -26 17 22 -3
36 -8 45 -23 45 -16 0 -19 -7 -18 -47z m29 21 c0 -8 -4 -12 -10 -9 -5 3 -10
10 -10 16 0 5 5 9 10 9 6 0 10 -7 10 -16z"/>
<path d="M1873 365 c0 -27 2 -38 4 -22 2 15 2 37 0 50 -2 12 -4 0 -4 -28z"/>
<path d="M1906 388 c-3 -13 -6 -34 -6 -48 0 -20 2 -22 10 -10 9 13 11 13 20 0
8 -12 10 -10 10 10 0 34 -11 70 -20 70 -4 0 -10 -10 -14 -22z"/>
<path d="M1962 368 c-2 -44 0 -48 21 -47 16 1 17 3 5 6 -12 3 -18 17 -21 46
l-4 42 -1 -47z"/>
<path d="M732 268 c-29 -29 -5 -111 25 -87 7 7 13 26 13 44 0 38 -20 61 -38
43z m15 -60 c-2 -13 -4 -5 -4 17 -1 22 1 32 4 23 2 -10 2 -28 0 -40z"/>
<path d="M1053 273 c-18 -7 -17 -89 1 -96 8 -3 17 -3 20 0 9 10 7 53 -3 53 -5
0 -7 -9 -4 -20 3 -11 0 -20 -6 -20 -6 0 -11 16 -11 36 0 28 3 35 15 30 8 -3
15 -1 15 4 0 12 -13 18 -27 13z"/>
<path d="M1323 273 c-18 -6 -17 -89 1 -96 20 -8 36 13 36 49 0 33 -17 54 -37
47z m17 -48 c0 -19 -4 -35 -10 -35 -5 0 -10 16 -10 35 0 19 5 35 10 35 6 0 10
-16 10 -35z"/>
<path d="M470 251 c5 -11 10 -31 10 -45 0 -14 5 -26 10 -26 6 0 10 13 10 29 0
16 3 38 6 48 5 15 4 16 -6 3 -9 -11 -13 -12 -17 -2 -2 6 -9 12 -14 12 -6 0 -6
-8 1 -19z"/>
<path d="M551 223 c1 -43 2 -45 9 -18 11 44 11 65 0 65 -5 0 -9 -21 -9 -47z"/>
<path d="M583 243 c-17 -36 -17 -66 -1 -38 12 19 12 19 19 -5 5 -19 7 -14 8
23 1 53 -8 60 -26 20z"/>
<path d="M630 225 c0 -40 2 -45 23 -44 16 1 18 2 5 6 -21 5 -24 29 -5 36 10 4
10 6 0 6 -19 1 -15 29 5 34 13 4 11 5 -5 6 -21 1 -23 -4 -23 -44z"/>
<path d="M690 236 c0 -19 -3 -43 -7 -53 -6 -16 -5 -16 10 -4 19 15 24 91 7 91
-5 0 -10 -15 -10 -34z"/>
<path d="M780 226 c0 -48 15 -63 23 -23 l4 22 2 -22 c2 -41 16 -24 16 20 0 36
-3 42 -22 45 -21 3 -23 -1 -23 -42z m27 12 c-3 -8 -6 -5 -6 6 -1 11 2 17 5 13
3 -3 4 -12 1 -19z"/>
<path d="M850 256 c0 -7 -3 -29 -6 -47 -4 -27 -3 -31 6 -19 9 11 13 12 17 3 2
-7 9 -13 14 -13 8 0 6 22 -8 73 -5 20 -23 23 -23 3z m17 -38 c-3 -8 -6 -5 -6
6 -1 11 2 17 5 13 3 -3 4 -12 1 -19z"/>
<path d="M928 226 c-2 -26 0 -46 4 -46 5 0 8 10 9 23 l0 22 9 -22 c13 -33 16
-29 16 19 -1 31 -5 44 -17 46 -13 2 -18 -7 -21 -42z m27 25 c3 -5 1 -12 -5
-16 -5 -3 -10 1 -10 9 0 18 6 21 15 7z"/>
<path d="M980 225 c0 -40 2 -45 23 -44 12 0 16 3 10 6 -7 2 -13 11 -13 18 0 7
6 16 13 18 10 4 10 6 0 6 -7 1 -13 7 -13 15 0 8 6 17 13 19 6 3 2 6 -10 6 -21
1 -23 -4 -23 -44z"/>
<path d="M1104 225 c1 -37 5 -50 16 -50 11 0 15 13 16 50 1 45 1 46 -3 8 -2
-24 -8 -43 -13 -43 -5 0 -11 19 -13 43 -4 38 -4 37 -3 -8z"/>
<path d="M1162 228 c-2 -47 -1 -48 27 -48 16 0 32 6 34 13 4 9 8 8 16 -3 9
-13 11 -13 11 1 0 31 -13 79 -21 79 -5 0 -12 -18 -15 -40 -5 -30 -11 -40 -25
-40 -14 0 -19 10 -22 43 l-4 42 -1 -47z"/>
<path d="M1257 262 c6 -4 13 -25 16 -47 l4 -40 1 42 c1 23 8 44 15 46 6 3 -1
6 -18 6 -17 0 -25 -3 -18 -7z"/>
<path d="M1370 225 c0 -25 4 -45 10 -45 5 0 7 7 4 15 -4 8 -1 15 5 15 6 0 11
-7 11 -15 0 -8 3 -15 8 -15 6 0 7 38 3 83 -1 4 -10 7 -21 7 -17 0 -20 -7 -20
-45z m30 19 c0 -8 -5 -12 -10 -9 -6 4 -8 11 -5 16 9 14 15 11 15 -7z"/>
<path d="M1433 225 c0 -27 2 -38 4 -22 2 15 2 37 0 50 -2 12 -4 0 -4 -28z"/>
<path d="M1466 239 c-3 -17 -6 -39 -6 -48 0 -14 2 -14 11 -1 8 11 12 12 16 3
7 -19 22 -15 18 5 -12 59 -16 72 -24 72 -5 0 -11 -14 -15 -31z"/>
</g>
</svg>
